<svg xmlns="http://www.w3.org/2000/svg" width="100" height="100" viewBox="0 0 100 100"><g><g><path fill="#012f34" d="M-100 0c0-55.228 44.772-100 100-100S100-55.228 100 0 55.228 100 0 100-100 55.228-100 0zM0 33c18.225 0 33-14.775 33-33S18.225-33 0-33-33-18.225-33 0s14.775 33 33 33z"/></g><g><path fill="#f67e7e" d="M-51 40h4v4h-4zm0-8h4v4h-4zm0-8h4v4h-4zm0-8h4v4h-4zm0-8h4v4h-4zm0-8h4v4h-4zm-7 40h4v4h-4zm0-8h4v4h-4zm0-8h4v4h-4zm0-8h4v4h-4zm0-8h4v4h-4zm0-8h4v4h-4zm-7 40h4v4h-4zm0-8h4v4h-4zm0-8h4v4h-4zm0-8h4v4h-4zm0-8h4v4h-4zm0-8h4v4h-4zm-7 40h4v4h-4zm0-8h4v4h-4zm0-8h4v4h-4zm0-8h4v4h-4zm0-8h4v4h-4zm0-8h4v4h-4zm-7 40h4v4h-4zm0-8h4v4h-4zm0-8h4v4h-4zm0-8h4v4h-4zm0-8h4v4h-4zm0-8h4v4h-4zm-7 40h4v4h-4zm0-8h4v4h-4zm0-8h4v4h-4zm0-8h4v4h-4zm0-8h4v4h-4zm0-8h4v4h-4zm-7 40h4v4h-4zm0-8h4v4h-4zm0-8h4v4h-4zm0-8h4v4h-4zm0-8h4v4h-4zm0-8h4v4h-4zm-7 40h4v4h-4zm0-8h4v4h-4zm0-8h4v4h-4zm0-8h4v4h-4zm0-8h4v4h-4zm0-8h4v4h-4z"/></g></g></svg>